<svg id="favourite" enable-background="new 0 0 300 300" height="512" viewBox="0 0 300 300" width="512" xmlns="http://www.w3.org/2000/svg"><g><circle cx="128" cy="154" fill="#e5efef" r="86"/><g><path d="m148 80h-82v-13.109c0-10.433 8.458-18.891 18.891-18.891h63.109z" fill="#efefd2"/><path d="m148 84h-82c-2.211 0-4-1.791-4-4v-13.109c0-12.621 10.27-22.891 22.891-22.891h63.109c2.211 0 4 1.791 4 4v32c0 2.209-1.789 4-4 4zm-78-8h74v-24h-59.109c-8.211 0-14.891 6.68-14.891 14.891z" fill="#4c241d"/></g><g><path d="m84.894 48.019c10.659.451 17.106 9.004 17.106 19.981v157.217c0 14.792 9.208 26.783 24 26.783h96l16-11.944v-169.41c0-12.507-10.139-22.646-22.646-22.646h-129.354z" fill="#fff"/><path d="m222 256h-96c-16.223 0-28-12.945-28-30.783v-157.217c0-9.369-5.211-15.643-13.273-15.984-2.16-.092-3.859-1.883-3.832-4.045s1.766-3.912 3.93-3.951l1.105-.02h129.426c14.691 0 26.644 11.953 26.644 26.646v169.41c0 1.262-.598 2.451-1.605 3.205l-16 11.943c-.692.517-1.532.796-2.395.796zm-121.109-204c3.242 4.145 5.109 9.668 5.109 16v157.217c0 13.414 8.223 22.783 20 22.783h94.672l13.328-9.949v-167.405c0-10.281-8.363-18.646-18.645-18.646z" fill="#4c241d"/></g><g><path d="m126 252h108.888c10.555 0 19.112-8.557 19.112-19.112v-8.888h-108v6c0 11.659-9.069 21.199-20.537 21.952z" fill="#efefd2"/><path d="m234.887 256h-108.887c-.117 0-.23-.006-.348-.016l-.539-.047c-2.082-.18-3.676-1.936-3.652-4.027.023-2.09 1.652-3.811 3.738-3.949 9.422-.619 16.801-8.508 16.801-17.961v-6c0-2.209 1.789-4 4-4h108c2.211 0 4 1.791 4 4v8.889c0 12.744-10.367 23.111-23.113 23.111zm-92.153-8h92.152c8.332 0 15.113-6.779 15.113-15.111v-4.889h-99.999v2c0 6.945-2.762 13.309-7.266 18z" fill="#4c241d"/></g><g fill="#4c241d"><path d="m59.656 201.656c-1.023 0-2.047-.391-2.828-1.172l-11.312-11.312c-1.562-1.562-1.562-4.094 0-5.656s4.094-1.562 5.656 0l11.312 11.312c1.562 1.562 1.562 4.094 0 5.656-.781.782-1.804 1.172-2.828 1.172z"/><path d="m48.344 201.656c-1.023 0-2.047-.391-2.828-1.172-1.562-1.562-1.562-4.094 0-5.656l11.312-11.312c1.562-1.562 4.094-1.562 5.656 0s1.562 4.094 0 5.656l-11.312 11.312c-.781.782-1.805 1.172-2.828 1.172z"/><circle cx="82" cy="180" r="4"/><circle cx="70" cy="136" r="4"/></g><path d="m198 188h-48c-2.211 0-4-1.791-4-4s1.789-4 4-4h48c2.211 0 4 1.791 4 4s-1.789 4-4 4z" fill="#b5a19c"/><path d="m210 200h-72c-2.211 0-4-1.791-4-4s1.789-4 4-4h72c2.211 0 4 1.791 4 4s-1.789 4-4 4z" fill="#b5a19c"/><g><path d="m174.12 151.088 13.22 6.666c2.442 1.231 5.157-1.023 4.65-3.86l-2.339-13.081c-.22-1.233.187-2.498 1.07-3.324l9.645-9.017c2.141-2.002 1.074-5.771-1.746-6.164l-14.001-1.951c-1.043-.145-1.958-.814-2.466-1.799l-6.55-12.729c-1.255-2.438-4.529-2.438-5.784 0l-6.55 12.729c-.507.986-1.423 1.654-2.466 1.799l-14.001 1.951c-2.819.393-3.887 4.162-1.746 6.164l9.645 9.017c.883.826 1.291 2.091 1.07 3.324l-2.339 13.081c-.507 2.837 2.208 5.091 4.65 3.86l13.22-6.666c.895-.449 1.927-.449 2.818 0z" fill="#ffce56"/><path d="m156.676 162.094c-1.504 0-3-.48-4.266-1.422-2.312-1.721-3.43-4.586-2.914-7.477l2.34-13.086-9.508-8.715c-2.164-2.023-2.945-5.061-2.035-7.93.875-2.768 3.16-4.729 5.961-5.117l13.602-1.896 6.41-12.453c1.266-2.467 3.738-3.998 6.449-3.998 2.707 0 5.18 1.531 6.449 3.998l6.406 12.453 13.602 1.896c2.801.389 5.086 2.35 5.961 5.117.91 2.869.129 5.906-2.035 7.93l-9.645 9.016 2.477 12.779c.516 2.896-.602 5.762-2.914 7.482-2.188 1.625-5.055 1.875-7.477.652l-12.828-6.467-12.824 6.469c-1.02.515-2.117.769-3.211.769zm19.246-14.578 11.941 6.023-2.148-12.02c-.457-2.543.414-5.209 2.273-6.951l9.035-8.443-12.953-1.807c-2.336-.328-4.383-1.801-5.477-3.941l-5.879-11.428-5.891 11.438c-1.086 2.131-3.133 3.604-5.465 3.932l-13.145 1.832 9.219 8.416c1.863 1.744 2.734 4.41 2.277 6.959l-2.148 12.014 11.941-6.023c2.014-1.015 4.416-1.011 6.42-.001zm-16.215-30.782v.002zm26.004-.009v.002c0-.002 0-.002 0-.002z" fill="#4c241d"/></g></g></svg>