<svg xmlns="http://www.w3.org/2000/svg" width="1000" height="1000" viewBox="0 0 1000 1000">
  <metadata><?xpacket begin="﻿" id="W5M0MpCehiHzreSzNTczkc9d"?>
<x:xmpmeta xmlns:x="adobe:ns:meta/" x:xmptk="Adobe XMP Core 5.6-c138 79.159824, 2016/09/14-01:09:01        ">
   <rdf:RDF xmlns:rdf="http://www.w3.org/1999/02/22-rdf-syntax-ns#">
      <rdf:Description rdf:about=""/>
   </rdf:RDF>
</x:xmpmeta>
                                                                                                    
                                                                                                    
                                                                                                    
                                                                                                    
                                                                                                    
                                                                                                    
                                                                                                    
                                                                                                    
                                                                                                    
                                                                                                    
                                                                                                    
                                                                                                    
                                                                                                    
                                                                                                    
                                                                                                    
                                                                                                    
                                                                                                    
                                                                                                    
                                                                                                    
                                                                                                    
                           
<?xpacket end="w"?></metadata>
<defs>
    <style>
      .cls-1 {
        fill-rule: evenodd;
      }
    </style>
  </defs>
  <path id="Labbedit" class="cls-1" d="M252.175,496.859a8.06,8.06,0,0,0-1.832-5.2,6.658,6.658,0,0,0-5.273-2.49,8.33,8.33,0,0,0-2.344.366q-29.223,9.228-48.34,9.009a85.6,85.6,0,0,1,.44-10.767l0.952-11.133q1.977-33.911,1.978-75.293A7.477,7.477,0,0,0,195.668,396a6.924,6.924,0,0,0-5.237-2.2,6.839,6.839,0,0,0-5.163,2.2,7.477,7.477,0,0,0-2.088,5.347q0,40.869-1.9,74.414l-1.465,24.243q0,8.2,4.395,11.28,3.222,2.27,10.62,2.27,10.328,0,26.66-2.856,17.724-3.077,26-6.958,4.686-2.2,4.688-6.885h0Zm75,12.817a6.314,6.314,0,0,0,2.05-4.834l-0.439-1.245q-1.173-2.562-1.685-3.882a110.146,110.146,0,0,1-4.614-12.89,59.746,59.746,0,0,1-1.245-14.356q0.072-9.96.476-16.333a53.426,53.426,0,0,1,1.135-9.155,4.958,4.958,0,0,0,1.465-3.516q0-5.784-9.961-9.887a37.614,37.614,0,0,0-14.282-3.3q-16.918,0-29.114,12.6A42.033,42.033,0,0,0,258.766,473.2q0,18.75,7.4,27.832Q274,510.7,291.139,510.7a27.3,27.3,0,0,0,8.936-1.941,94.156,94.156,0,0,0,12.378-5.75,32.691,32.691,0,0,0,4.907,5.347q3.661,3.222,5.054,3.223A6.788,6.788,0,0,0,327.175,509.676Zm-17.652-19.922a43.813,43.813,0,0,1-7.4,5.567,25.513,25.513,0,0,1-11.939,2.563q-8.5,0-12.744-6.006T273.2,473.861a31.177,31.177,0,0,1,8.24-21.35q8.239-9.266,19.592-9.265a10.27,10.27,0,0,1,3.113.659,35.716,35.716,0,0,1,4.651,2.051q-0.807,4.174-1.209,7.873a63.447,63.447,0,0,0-.4,6.848q0,9.669,2.344,29.077h0Zm93.457,8.423q10.767-11.645,10.767-28.344,0-16.553-9.229-27.906-9.814-12.084-25.561-12.085a30.794,30.794,0,0,0-10.8,2.161,58.625,58.625,0,0,0-12.122,6.482l0.146-18.677,0.22-16.04a17.889,17.889,0,0,1,.366-3,17.987,17.987,0,0,0,.367-3q0-6.372-5.494-6.372-4.248,0-6.665,4.468a16.861,16.861,0,0,0-1.831,7.91q0,5.421-.073,20.325T343,444.344q0,7.764.4,23.255t0.4,23.254q0,1.9-.184,5.64t-0.183,5.639A6.6,6.6,0,0,0,345.375,507a6.431,6.431,0,0,0,4.724,1.941q3.369,0,5.713-3.516a46.44,46.44,0,0,0,20.362,4.395A35.01,35.01,0,0,0,402.98,498.177ZM394.924,451.6q5.493,7.324,5.493,18.238,0,11.133-6.812,18.6a22.534,22.534,0,0,1-17.431,7.471,34.67,34.67,0,0,1-10.181-1.392q-6.372-2.488-9.888-4.1L356.032,478.4l-0.073-11.426,0.146-12.671a110.028,110.028,0,0,1,10.547-7.251,26.007,26.007,0,0,1,12.305-3.369,18.936,18.936,0,0,1,15.967,7.91h0Zm97.045,46.582q10.767-11.645,10.767-28.344,0-16.553-9.228-27.906-9.816-12.084-25.562-12.085a30.794,30.794,0,0,0-10.8,2.161,58.625,58.625,0,0,0-12.122,6.482l0.147-18.677,0.219-16.04a17.914,17.914,0,0,1,.367-3,18.07,18.07,0,0,0,.366-3q0-6.372-5.493-6.372-4.25,0-6.665,4.468a16.861,16.861,0,0,0-1.831,7.91q0,5.421-.074,20.325t-0.073,20.251q0,7.764.4,23.255t0.4,23.254q0,1.9-.183,5.64t-0.183,5.639a6.6,6.6,0,0,0,1.94,4.871,6.433,6.433,0,0,0,4.725,1.941q3.368,0,5.712-3.516a46.444,46.444,0,0,0,20.362,4.395A35.009,35.009,0,0,0,491.969,498.177ZM483.913,451.6q5.493,7.324,5.493,18.238,0,11.133-6.812,18.6a22.534,22.534,0,0,1-17.431,7.471,34.67,34.67,0,0,1-10.181-1.392q-6.372-2.488-9.888-4.1L445.021,478.4l-0.073-11.426,0.146-12.671a110.158,110.158,0,0,1,10.547-7.251,26.01,26.01,0,0,1,12.305-3.369,18.935,18.935,0,0,1,15.967,7.91h0Zm92.065,53.54q13.11-5.859,13.111-13.989a6.074,6.074,0,0,0-2.015-4.5A6.423,6.423,0,0,0,582.5,484.7q-2.856,0-5.347,3.918t-11.133,6.336a44.938,44.938,0,0,1-11.865,1.9,31.31,31.31,0,0,1-14.246-3.076,26.713,26.713,0,0,1-10.217-9.156l27.979-13.256q11.865-5.566,15.527-8.2,8.275-6.006,8.276-13.331,0-10.473-9.448-15.527-7.691-4.1-19.848-4.1-16.773,0-26.807,14.062-9.228,12.892-9.229,31.934,0,16.479,11.206,25.634,10.254,8.277,26.807,8.277a53.557,53.557,0,0,0,21.826-4.981h0Zm-6.152-55.883q-5.641,4.761-18.9,11.206l-22.485,10.693q2.928-13.916,8.862-20.837a18.772,18.772,0,0,1,14.869-6.922q11.352,0,17.651,5.86h0ZM672.511,397.1q0-7.1-6.665-7.1-5.712,0-6.665,6.518-1.392,10.695-2.417,41.528l-6.884-5.053q-4.615-2.637-13.111-2.637-16.553,0-26.916,11.792T599.489,473.5q0,16.187,10.254,26.513,9.96,10.109,25.122,10.108a35.683,35.683,0,0,0,11.829-1.978,41.433,41.433,0,0,0,10.949-5.859q2.124,6.591,6.665,6.592a6.782,6.782,0,0,0,4.761-1.9,6.312,6.312,0,0,0,2.051-4.834,12.338,12.338,0,0,0-.147-1.684Q668.7,488,668.7,463.607q0-10.767.879-21.533,2.928-34.79,2.929-44.971h0Zm-24.389,49.841a20.639,20.639,0,0,1,7.4,8.9l-0.146,8.643-0.073,8.5,0.219,12.671a15.874,15.874,0,0,1-2.124,2.27,56.125,56.125,0,0,1-8.13,6.079,21.812,21.812,0,0,1-10.4,2.271,21.344,21.344,0,0,1-15.71-6.812,22.374,22.374,0,0,1-6.7-16.259q0-14.649,6.152-21.936t18.457-7.288A20.02,20.02,0,0,1,648.122,446.944Zm62.146-35.412a8.4,8.4,0,0,0,0-12.012,8.312,8.312,0,0,0-6.043-2.49,8.434,8.434,0,0,0-6.079,2.49,8.319,8.319,0,0,0,0,12.012,8.43,8.43,0,0,0,6.079,2.49A8.308,8.308,0,0,0,710.268,411.532Zm-2.014,44.787q0.731-10.289.732-17.175a7.31,7.31,0,0,0-2.014-5.347,7.528,7.528,0,0,0-10.327,0,7.3,7.3,0,0,0-2.014,5.347q0,6.885-.733,17.175T693.166,473.5q0,4.393.256,13.147t0.256,13.147a7.2,7.2,0,0,0,2.015,5.273,7.571,7.571,0,0,0,10.363,0,7.276,7.276,0,0,0,1.978-5.273q0-4.395-.256-13.147T707.521,473.5Q707.521,466.612,708.254,456.319Zm78.186-14.062a7.337,7.337,0,0,0,2.014-5.31q0-5.419-4.468-6.885-2.345-.731-9.961-0.732-1.318,0-10.4,1.172l0.073-4.542,0.146-4.248q0-3.807-.219-6.518-1.1-10.767-7.691-10.767a7.278,7.278,0,0,0-5.2,2.014,6.715,6.715,0,0,0-2.124,5.091q0,2.784.33,9.045t0.329,10l-15.381-1.245a6.6,6.6,0,0,0-5.053,2.124,7.537,7.537,0,0,0-1.978,5.346q0,6.372,6.519,7.251,10.912,1.027,16.259,1.245L751.1,488.07q0,2.784-.219,8.349t-0.22,8.35a6.084,6.084,0,0,0,2.161,4.761,7.447,7.447,0,0,0,5.09,1.9q7.981,0,7.69-16.04l-0.073-3.735-0.073-3.223-1.392-43.286q8.276-1.1,9.961-1.1,1.539,0,3.626.147t3.625,0.146A6.867,6.867,0,0,0,786.44,442.257Z"/>
</svg>
