<?xml version="1.0" standalone="no"?>
<!DOCTYPE svg PUBLIC "-//W3C//DTD SVG 20010904//EN"
 "http://www.w3.org/TR/2001/REC-SVG-20010904/DTD/svg10.dtd">
<svg version="1.0" xmlns="http://www.w3.org/2000/svg"
 width="225.000000pt" height="225.000000pt" viewBox="0 0 225.000000 225.000000"
 preserveAspectRatio="xMidYMid meet">

<g transform="translate(0.000000,225.000000) scale(0.100000,-0.100000)"
fill="#000000" stroke="none">
<path d="M1161 2241 c-11 -7 -14 -52 -16 -223 -1 -155 -6 -227 -17 -263 -47
-158 -175 -305 -308 -356 l-49 -19 -20 27 c-29 36 -48 107 -57 205 -8 97 -16
118 -48 118 -35 0 -151 -87 -237 -177 -96 -101 -167 -216 -210 -341 -32 -93
-33 -103 -34 -247 0 -181 19 -265 95 -421 147 -303 427 -499 766 -536 408 -45
797 177 974 556 154 329 101 761 -136 1116 -66 97 -68 100 -102 100 -41 0 -88
56 -84 98 4 34 -19 57 -49 49 -14 -4 -33 3 -55 20 -27 20 -33 30 -28 50 4 15
0 30 -11 43 -42 47 -314 210 -348 210 -7 0 -18 -4 -26 -9z m-670 -1868 c13
-16 12 -17 -3 -4 -17 13 -22 21 -14 21 2 0 10 -8 17 -17z m1269 -6 c0 -2 -10
-12 -22 -23 l-23 -19 19 23 c18 21 26 27 26 19z m-1225 -37 c10 -11 16 -20 13
-20 -3 0 -13 9 -23 20 -10 11 -16 20 -13 20 3 0 13 -9 23 -20z m562 -236 c-3
-3 -12 -4 -19 -1 -8 3 -5 6 6 6 11 1 17 -2 13 -5z m80 0 c-3 -3 -12 -4 -19 -1
-8 3 -5 6 6 6 11 1 17 -2 13 -5z"/>
</g>
</svg>
